<mxfile host="app.diagrams.net" modified="2023-11-07T00:41:06.262Z" agent="Mozilla/5.0 (Windows NT 10.0; Win64; x64; rv:109.0) Gecko/20100101 Firefox/119.0" etag="f_syZrUgXI_4P4oxuErF" version="22.0.8" type="device">
  <diagram name="Page-1" id="ydcYfOpEcYDa0tHygy0w">
    <mxGraphModel dx="1185" dy="469" grid="0" gridSize="10" guides="1" tooltips="1" connect="1" arrows="1" fold="1" page="1" pageScale="1" pageWidth="700" pageHeight="1000" math="0" shadow="0">
      <root>
        <mxCell id="0" />
        <mxCell id="1" parent="0" />
        <mxCell id="FtshoOyojBkg6BHPixg--14" style="edgeStyle=orthogonalEdgeStyle;rounded=0;orthogonalLoop=1;jettySize=auto;html=1;dashed=1;endArrow=blockThin;endFill=1;" edge="1" parent="1" source="FtshoOyojBkg6BHPixg--1" target="FtshoOyojBkg6BHPixg--11">
          <mxGeometry relative="1" as="geometry" />
        </mxCell>
        <mxCell id="FtshoOyojBkg6BHPixg--1" value="" style="shape=folder;fontStyle=1;spacingTop=10;tabWidth=90;tabHeight=20;tabPosition=left;html=1;whiteSpace=wrap;" vertex="1" parent="1">
          <mxGeometry x="294" y="384" width="216" height="96" as="geometry" />
        </mxCell>
        <mxCell id="FtshoOyojBkg6BHPixg--3" value="supermarket service" style="shape=folder;fontStyle=1;spacingTop=10;tabWidth=40;tabHeight=14;tabPosition=left;html=1;whiteSpace=wrap;" vertex="1" parent="1">
          <mxGeometry x="409" y="411" width="92" height="61" as="geometry" />
        </mxCell>
        <mxCell id="FtshoOyojBkg6BHPixg--5" value="&lt;b&gt;supermarket&lt;/b&gt;" style="text;html=1;align=center;verticalAlign=middle;resizable=0;points=[];autosize=1;strokeColor=none;fillColor=none;" vertex="1" parent="1">
          <mxGeometry x="293" y="381" width="92" height="26" as="geometry" />
        </mxCell>
        <mxCell id="FtshoOyojBkg6BHPixg--6" value="supermarket controller" style="shape=folder;fontStyle=1;spacingTop=10;tabWidth=40;tabHeight=14;tabPosition=left;html=1;whiteSpace=wrap;" vertex="1" parent="1">
          <mxGeometry x="302" y="411" width="92" height="61" as="geometry" />
        </mxCell>
        <mxCell id="FtshoOyojBkg6BHPixg--7" value="" style="shape=folder;fontStyle=1;spacingTop=10;tabWidth=90;tabHeight=20;tabPosition=left;html=1;whiteSpace=wrap;" vertex="1" parent="1">
          <mxGeometry x="295" y="504" width="215" height="96" as="geometry" />
        </mxCell>
        <mxCell id="FtshoOyojBkg6BHPixg--8" value="order service" style="shape=folder;fontStyle=1;spacingTop=10;tabWidth=40;tabHeight=14;tabPosition=left;html=1;whiteSpace=wrap;" vertex="1" parent="1">
          <mxGeometry x="409" y="531" width="92" height="61" as="geometry" />
        </mxCell>
        <mxCell id="FtshoOyojBkg6BHPixg--9" value="&lt;b&gt;order&lt;/b&gt;" style="text;html=1;align=center;verticalAlign=middle;resizable=0;points=[];autosize=1;strokeColor=none;fillColor=none;" vertex="1" parent="1">
          <mxGeometry x="314.5" y="499" width="49" height="26" as="geometry" />
        </mxCell>
        <mxCell id="FtshoOyojBkg6BHPixg--10" value="order controller" style="shape=folder;fontStyle=1;spacingTop=10;tabWidth=40;tabHeight=14;tabPosition=left;html=1;whiteSpace=wrap;" vertex="1" parent="1">
          <mxGeometry x="302" y="531" width="92" height="61" as="geometry" />
        </mxCell>
        <mxCell id="FtshoOyojBkg6BHPixg--11" value="" style="shape=folder;fontStyle=1;spacingTop=10;tabWidth=40;tabHeight=15;tabPosition=left;html=1;whiteSpace=wrap;" vertex="1" parent="1">
          <mxGeometry x="573" y="464" width="96" height="47" as="geometry" />
        </mxCell>
        <mxCell id="FtshoOyojBkg6BHPixg--13" value="&lt;b&gt;Firebase API&lt;br&gt;&lt;/b&gt;" style="text;html=1;align=center;verticalAlign=middle;resizable=0;points=[];autosize=1;strokeColor=none;fillColor=none;" vertex="1" parent="1">
          <mxGeometry x="577" y="483" width="89" height="26" as="geometry" />
        </mxCell>
        <mxCell id="FtshoOyojBkg6BHPixg--18" value="" style="shape=folder;fontStyle=1;spacingTop=10;tabWidth=90;tabHeight=20;tabPosition=left;html=1;whiteSpace=wrap;" vertex="1" parent="1">
          <mxGeometry x="27" y="441" width="208" height="96" as="geometry" />
        </mxCell>
        <mxCell id="FtshoOyojBkg6BHPixg--19" value="manager view" style="shape=folder;fontStyle=1;spacingTop=10;tabWidth=40;tabHeight=14;tabPosition=left;html=1;whiteSpace=wrap;" vertex="1" parent="1">
          <mxGeometry x="136" y="468" width="92" height="61" as="geometry" />
        </mxCell>
        <mxCell id="FtshoOyojBkg6BHPixg--20" value="&lt;b&gt;views&lt;/b&gt;" style="text;html=1;align=center;verticalAlign=middle;resizable=0;points=[];autosize=1;strokeColor=none;fillColor=none;" vertex="1" parent="1">
          <mxGeometry x="47" y="438" width="51" height="26" as="geometry" />
        </mxCell>
        <mxCell id="FtshoOyojBkg6BHPixg--21" value="client view" style="shape=folder;fontStyle=1;spacingTop=10;tabWidth=40;tabHeight=14;tabPosition=left;html=1;whiteSpace=wrap;" vertex="1" parent="1">
          <mxGeometry x="35" y="468" width="92" height="61" as="geometry" />
        </mxCell>
        <mxCell id="FtshoOyojBkg6BHPixg--22" style="edgeStyle=orthogonalEdgeStyle;rounded=0;orthogonalLoop=1;jettySize=auto;html=1;entryX=-0.007;entryY=0.499;entryDx=0;entryDy=0;entryPerimeter=0;endArrow=block;endFill=1;dashed=1;" edge="1" parent="1" source="FtshoOyojBkg6BHPixg--7" target="FtshoOyojBkg6BHPixg--11">
          <mxGeometry relative="1" as="geometry" />
        </mxCell>
        <mxCell id="FtshoOyojBkg6BHPixg--24" style="edgeStyle=orthogonalEdgeStyle;rounded=0;orthogonalLoop=1;jettySize=auto;html=1;entryX=0.483;entryY=1.003;entryDx=0;entryDy=0;entryPerimeter=0;exitX=0.5;exitY=1;exitDx=0;exitDy=0;exitPerimeter=0;dashed=1;endArrow=block;endFill=1;" edge="1" parent="1" source="FtshoOyojBkg6BHPixg--18" target="FtshoOyojBkg6BHPixg--7">
          <mxGeometry relative="1" as="geometry" />
        </mxCell>
        <mxCell id="FtshoOyojBkg6BHPixg--27" style="edgeStyle=orthogonalEdgeStyle;rounded=0;orthogonalLoop=1;jettySize=auto;html=1;entryX=0;entryY=0;entryDx=0;entryDy=58;entryPerimeter=0;dashed=1;endArrow=block;endFill=1;" edge="1" parent="1" source="FtshoOyojBkg6BHPixg--18" target="FtshoOyojBkg6BHPixg--1">
          <mxGeometry relative="1" as="geometry" />
        </mxCell>
      </root>
    </mxGraphModel>
  </diagram>
</mxfile>
